HIERARCHY
ROOT root
{
	OFFSET 0.000000 0.000000 0.000000
	CHANNELS 6 Xposition Yposition Zposition Zrotation Yrotation Xrotation
	JOINT lhip
	{
		OFFSET 0.058581 -0.082280 -0.017664
		CHANNELS 3 Zrotation Yrotation Xrotation
		JOINT lknee
		{
			OFFSET 0.043451 -0.386469 0.008037
			CHANNELS 3 Zrotation Yrotation Xrotation
			JOINT lankle
			{
				OFFSET -0.014790 -0.426874 -0.037428
				CHANNELS 3 Zrotation Yrotation Xrotation
				JOINT ltoe
				{
					OFFSET 0.041054 -0.060286 0.122042
					CHANNELS 3 Zrotation Yrotation Xrotation
					End Site
					{
						OFFSET 0.000000 0.000000 0.000000
					}
				}
			}
		}
	}
	JOINT rhip
	{
		OFFSET -0.060310 -0.090513 -0.013543
		CHANNELS 3 Zrotation Yrotation Xrotation
		JOINT rknee
		{
			OFFSET -0.043257 -0.383688 -0.004843
			CHANNELS 3 Zrotation Yrotation Xrotation
			JOINT rankle
			{
				OFFSET 0.019056 -0.420046 -0.034562
				CHANNELS 3 Zrotation Yrotation Xrotation
				JOINT rtoe
				{
					OFFSET -0.034840 -0.062106 0.130323
					CHANNELS 3 Zrotation Yrotation Xrotation
					End Site
					{
						OFFSET 0.000000 0.000000 0.000000
					}
				}
			}
		}
	}
	JOINT lowerback
	{
		OFFSET 0.004439 0.124404 -0.038385
		CHANNELS 3 Zrotation Yrotation Xrotation
		JOINT upperback
		{
			OFFSET 0.004488 0.137956 0.026820
			CHANNELS 3 Zrotation Yrotation Xrotation
			JOINT chest
			{
				OFFSET -0.002265 0.056032 0.002855
				CHANNELS 3 Zrotation Yrotation Xrotation
				JOINT lowerneck
				{
					OFFSET -0.013390 0.211636 -0.033468
					CHANNELS 3 Zrotation Yrotation Xrotation
					JOINT upperneck
					{
						OFFSET 0.010113 0.088937 0.050410
						CHANNELS 3 Zrotation Yrotation Xrotation
						End Site
						{
							OFFSET 0.000000 0.000000 0.000000
						}
					}
				}
				JOINT lclavicle
				{
					OFFSET 0.071702 0.114000 -0.018898
					CHANNELS 3 Zrotation Yrotation Xrotation
					JOINT lshoulder
					{
						OFFSET 0.122921 0.045205 -0.019046
						CHANNELS 3 Zrotation Yrotation Xrotation
						JOINT lelbow
						{
							OFFSET 0.255332 -0.015649 -0.022946
							CHANNELS 3 Zrotation Yrotation Xrotation
							JOINT lwrist
							{
								OFFSET 0.265709 0.012698 -0.007375
								CHANNELS 3 Zrotation Yrotation Xrotation
								End Site
								{
									OFFSET 0.000000 0.000000 0.000000
								}
							}
						}
					}
				}
				JOINT rclavicle
				{
					OFFSET -0.082954 0.112472 -0.023707
					CHANNELS 3 Zrotation Yrotation Xrotation
					JOINT rshoulder
					{
						OFFSET -0.113228 0.046853 -0.008472
						CHANNELS 3 Zrotation Yrotation Xrotation
						JOINT relbow
						{
							OFFSET -0.260127 -0.014369 -0.031269
							CHANNELS 3 Zrotation Yrotation Xrotation
							JOINT rwrist
							{
								OFFSET -0.269108 0.006794 -0.006027
								CHANNELS 3 Zrotation Yrotation Xrotation
								End Site
								{
									OFFSET 0.000000 0.000000 0.000000
								}
							}
						}
					}
				}
			}
		}
	}
}
MOTION
Frames: 13
Frame Time: 0.033333
1.052222 0.766507 0.986600 -91.434835 -4.578216 92.978189 26.450264 3.097893 -4.110113 -1.371490 -15.053076 21.706129 -12.406830 10.315983 17.132391 0.000000 -0.000000 0.000000 -17.831452 -8.826494 -47.550199 2.127664 -9.697035 70.906203 1.364199 -3.127925 -29.120560 0.000000 -0.000000 0.000000 0.648391 -7.762957 33.111503 0.488677 0.973986 10.758448 -0.223080 -3.739347 0.315944 4.652730 -0.590012 2.787299 2.594725 -4.592841 10.200384 -18.275955 -3.209885 0.055299 -48.722650 -14.386971 8.145259 12.351334 -61.448680 0.365307 7.756151 -4.462688 -22.365222 13.342318 9.649734 1.705146 32.091028 10.338624 -0.644007 -11.255850 42.933754 -9.569279 -0.769281 6.807977 -2.557830 
1.047373 0.783887 1.003685 -92.602517 -4.034594 93.176365 24.674473 1.992551 -6.389550 -0.166873 -9.551988 31.167473 -7.470360 14.480436 14.597560 0.000000 -0.000000 0.000000 -15.539212 -7.155737 -45.259673 2.722070 -9.741999 66.692745 0.208047 -4.418522 -28.300464 0.000000 -0.000000 0.000000 0.824968 -6.957441 31.892936 0.608142 1.186950 10.858691 -0.185417 -3.284256 0.957935 4.231902 -0.481751 3.044333 2.409625 -3.478472 11.051947 -18.095439 -2.226743 0.243796 -50.301271 -13.058153 8.320772 10.979818 -60.869638 2.698979 7.091287 -3.690460 -21.907186 13.076062 9.537179 2.227248 33.391444 11.038802 0.240795 -10.552948 42.269393 -7.541550 -0.798694 6.440921 -3.054611 
1.042632 0.800449 1.019540 -94.047141 -3.222845 93.287213 22.337869 0.248264 -8.772247 0.098186 -7.435609 41.408026 -5.874333 16.363757 10.253653 0.000000 -0.000000 0.000000 -13.006018 -4.952034 -42.934205 2.892326 -9.382014 62.405484 -0.339304 -5.357486 -27.055025 0.000000 -0.000000 0.000000 0.945908 -5.986528 30.560176 0.806711 1.136022 11.185855 -0.164074 -2.888450 1.588933 4.073594 -0.449561 3.414380 2.531578 -3.021383 10.951044 -18.004937 -1.481339 0.479896 -51.501719 -11.550939 8.407861 9.878727 -59.969572 3.741888 6.496071 -3.449344 -21.646298 12.989796 9.422897 2.378291 35.213760 11.511699 1.485692 -9.884926 41.872861 -5.338705 -1.329402 6.511200 -3.372560 
1.037168 0.814861 1.035227 -94.896852 -2.549132 93.577062 19.052274 -1.652642 -11.491514 -1.264618 -7.179630 50.597301 -4.028784 16.209200 6.219774 0.000000 -0.000000 0.000000 -10.658324 -3.382465 -40.450081 3.070118 -8.610978 57.839163 -0.502502 -6.276878 -25.534188 0.000000 -0.000000 0.000000 1.078983 -5.089287 30.131570 0.952821 0.882190 8.897793 0.059268 -2.669540 2.831002 3.611424 -1.024700 4.509932 2.917195 -1.882788 11.067319 -18.269948 -1.031629 1.531876 -52.451990 -10.364621 8.514666 9.049706 -58.192725 4.524504 6.148679 -3.566992 -20.779815 13.454060 8.779055 2.415041 36.987131 11.212627 2.785053 -8.997322 41.582327 -3.329924 -0.645969 6.389812 -3.399787 
1.032385 0.828295 1.049806 -95.613514 -1.719657 93.361709 16.163800 -3.105851 -13.491266 -2.473324 -5.263917 57.288384 -2.995935 15.604627 0.370083 0.000000 -0.000000 0.000000 -8.295842 -1.519663 -37.236690 3.090728 -7.848551 53.028129 -0.879808 -7.521903 -24.186942 0.000000 -0.000000 0.000000 1.439746 -4.352275 28.994638 1.335887 0.311907 9.235738 -0.099255 -2.606748 3.304455 3.315386 -0.635523 4.892909 2.584387 -1.393989 11.553154 -18.341220 -0.782561 1.876960 -53.523950 -9.539968 8.407619 9.036049 -55.893956 4.837978 5.409815 -3.661683 -19.834641 13.422358 8.385677 2.751747 39.655795 11.491042 4.161017 -9.660280 41.287078 -2.076071 0.416941 5.777520 -4.643886 
1.026718 0.840856 1.064440 -96.462555 -1.077688 93.353269 12.926692 -3.698975 -15.065774 -3.404140 -3.209600 60.789005 -2.636148 14.169581 -5.430600 0.000000 -0.000000 0.000000 -6.046798 -0.038893 -34.137189 2.973971 -6.740415 48.122778 -0.682586 -8.276642 -22.674537 0.000000 -0.000000 0.000000 1.399697 -3.349418 28.344883 1.430880 0.145107 8.503428 -0.062106 -2.086356 3.691383 3.498896 -0.933040 5.279722 2.849515 -0.806286 11.988055 -18.355958 -0.264158 2.010570 -54.863774 -9.388515 8.562587 8.388533 -52.806687 6.241200 4.724647 -4.374464 -18.052404 14.333983 6.921318 2.166501 42.165715 10.987609 5.735051 -10.008062 40.580368 -1.093463 1.558718 5.619931 -5.063967 
1.021607 0.851740 1.076986 -96.912345 -0.511847 93.604614 9.533800 -4.567083 -16.702125 -4.369040 -2.116267 61.245636 -1.523673 12.081165 -9.757810 0.000000 -0.000000 0.000000 -3.960044 0.936160 -31.514745 2.461333 -5.760364 43.518111 -0.459680 -8.517416 -21.242247 0.000000 -0.000000 0.000000 1.401322 -2.459328 27.156375 1.582598 -0.357317 7.041061 0.039801 -1.861351 4.767021 3.351092 -0.457367 6.454947 2.877463 -0.335794 12.408431 -18.382091 -0.070723 2.428212 -56.148573 -9.050628 8.630376 9.289425 -49.985234 5.836172 3.523294 -4.647004 -16.654500 14.538293 6.357808 2.421304 45.191017 10.647493 6.929424 -11.140950 39.234053 -0.740585 2.376430 5.631311 -5.996096 
1.015973 0.862438 1.089411 -97.074022 -0.082809 93.356129 6.263719 -4.711710 -17.288817 -5.290543 -1.740913 58.944913 0.359638 12.534007 -14.083957 0.000000 -0.000000 0.000000 -1.981893 1.190142 -28.167029 2.176427 -4.553191 38.812674 -0.036768 -8.756104 -19.678225 0.000000 -0.000000 0.000000 1.222217 -1.470366 26.595198 1.867520 -0.947500 5.369950 0.042390 -1.636130 6.182863 3.547991 0.369870 7.322222 2.505954 -0.552370 12.151031 -18.751673 0.347391 2.594261 -56.417757 -9.290720 9.647531 9.146096 -47.127887 5.662163 5.236953 -4.081752 -17.512337 15.732573 4.931637 1.942509 47.140954 10.626788 8.877590 -11.828094 37.809632 -0.176202 2.447615 4.461906 -6.626157 
1.010781 0.872286 1.100176 -96.789267 0.346883 93.020901 3.517248 -5.391578 -17.592501 -5.235316 -1.678623 54.801838 0.761446 12.641751 -17.572409 0.000000 -0.000000 0.000000 -0.227596 1.273209 -24.834445 1.700010 -3.844812 34.342904 0.363669 -8.869975 -18.475536 0.000000 -0.000000 0.000000 1.165741 -0.439076 25.734501 2.163546 -1.447502 4.526690 0.047690 -1.529933 7.072412 4.149398 1.124585 7.767663 2.572039 -1.288050 12.208588 -18.661638 0.361235 2.744202 -57.245223 -9.527539 10.391328 9.748592 -44.430901 5.423252 5.298428 -4.297638 -17.343688 16.331202 3.911709 1.668572 49.604592 9.987449 10.053768 -12.900199 36.223341 -0.244546 3.013335 4.459900 -7.689299 
1.005997 0.881844 1.108632 -96.162493 0.714616 93.253008 1.389571 -6.928751 -18.386548 -5.558771 -3.212812 50.100112 1.476175 12.506179 -20.780907 0.000000 -0.000000 0.000000 1.070637 1.439708 -22.281252 1.497719 -3.529835 30.132989 0.971616 -9.208244 -17.233420 0.000000 -0.000000 0.000000 0.950869 0.232499 24.594018 2.262577 -1.767103 3.238141 0.167778 -1.410210 7.466354 4.575377 1.014236 8.664510 2.853942 -1.694319 12.723207 -18.592425 1.136552 3.025109 -57.992366 -9.538860 10.574328 9.777786 -42.839633 6.091806 4.716342 -4.584342 -16.726509 16.907094 2.576265 1.755222 52.039195 8.828781 10.822930 -13.458863 35.402419 0.239204 3.425674 4.553366 -8.321614 
1.001508 0.890732 1.115628 -95.443573 0.813626 93.102883 -0.242725 -8.295808 -18.501680 -5.494056 -4.623614 44.701581 2.669790 12.905811 -21.908566 0.000000 -0.000000 0.000000 1.944798 1.086645 -19.595904 1.373600 -3.568624 26.351811 1.284445 -9.041464 -16.046303 0.000000 -0.000000 0.000000 0.300624 1.341205 23.321797 2.463446 -2.279902 2.887468 0.464233 -1.545768 7.844970 4.938166 1.610520 9.093651 3.093040 -1.867652 12.927526 -18.235852 1.566043 3.211822 -58.922406 -9.613773 10.930343 10.358263 -41.789210 5.963736 4.276381 -4.480283 -16.760476 17.327099 1.524173 1.700055 54.141694 7.812551 11.492826 -13.951542 34.723435 0.247247 3.782111 4.507157 -9.175040 
0.994123 0.898772 1.121273 -96.040895 0.720940 92.339310 -1.724578 -8.012145 -16.812601 -5.070059 -6.041249 38.199939 3.263560 12.519252 -22.046318 0.000000 -0.000000 0.000000 2.795231 0.586673 -16.289315 1.324856 -2.666791 22.864683 1.210962 -8.423071 -15.225895 0.000000 -0.000000 0.000000 -0.602046 3.099762 22.099743 2.343458 -2.209765 3.212549 0.720801 -1.600181 7.636551 5.168570 1.898205 10.260560 3.558305 -2.129090 12.905539 -18.112117 1.675636 3.677878 -59.465376 -9.368232 10.871667 11.076316 -41.127380 5.443377 4.273129 -4.191535 -16.578975 17.739047 0.956369 2.256637 56.203451 6.531897 11.698859 -14.470259 34.141217 0.434279 3.913950 4.338394 -9.669478 
0.988251 0.906305 1.125164 -95.619477 1.041077 91.549185 -2.258256 -8.042812 -15.385908 -4.630918 -7.735602 32.915977 3.498170 12.456363 -22.504745 0.000000 -0.000000 0.000000 3.677687 -0.243689 -13.072750 1.495188 -2.502396 19.524176 1.389427 -8.016498 -14.301398 0.000000 -0.000000 0.000000 -0.861276 3.699464 21.006641 2.197177 -2.363431 3.485343 0.781854 -1.381678 7.744886 5.438175 1.798726 10.624762 4.035304 -2.861142 13.207563 -17.930844 2.115095 3.633548 -60.058086 -9.405820 10.797236 11.701262 -40.454625 4.650233 4.109384 -4.286545 -16.639571 17.866936 0.233870 2.286866 58.114299 5.519323 11.892299 -14.151701 33.500028 1.159101 4.467718 4.635335 -10.174456 
